<svg width="100" height="100" viewBox="0 0 100 100" fill="none" xmlns="http://www.w3.org/2000/svg">
  <rect width="100" height="100" rx="50" fill="#E2E8F0"/>
  <path d="M50 25C36.2 25 25 36.2 25 50C25 63.8 36.2 75 50 75C63.8 75 75 63.8 75 50C75 36.2 63.8 25 50 25ZM50 70C39 70 30 61 30 50C30 39 39 30 50 30C61 30 70 39 70 50C70 61 61 70 50 70Z" fill="#94A3B8"/>
  <path d="M65 45H55V35C55 33.3 53.7 32 52 32H48C46.3 32 45 33.3 45 35V45H35C33.3 45 32 46.3 32 48V52C32 53.7 33.3 55 35 55H45V65C45 66.7 46.3 68 48 68H52C53.7 68 55 66.7 55 65V55H65C66.7 55 68 53.7 68 52V48C68 46.3 66.7 45 65 45Z" fill="#94A3B8"/>
</svg>
